<?xml version="1.0" encoding="utf-8"?>
<?xml-stylesheet type="text/xsl" href="rss1.xsl"?>
<rss version="2.0" xmlns:atom="http://www.w3.org/2005/Atom" xmlns:content="http://purl.org/rss/1.0/modules/content/" xmlns:dc="http://purl.org/dc/elements/1.1/" xmlns:media="http://search.yahoo.com/mrss/">
<channel>
 <title>Getty</title>
 <link>http://www.gettyimg.com/</link>
 <atom:link href="http://www.gettyimg.com/" rel="self" type="application/rss+xml" />

 
                <item>
                <title><![CDATA[【MASTER &amp; MASTER RIP】MASTER - DOROFEEVA - Вотсап [Master 4K]]]></title>
                <link><![CDATA[https://sharemania.us/threads/dorofeeva-%D0%92%D0%BE%D1%82%D1%81%D0%B0%D0%BF-master-4k.239320/]]></link>
                <description><![CDATA[<article>
<blockquote class="messageText SelectQuoteContainer ugc baseHtml">
<div style="text-align: center"><img src="https://i.ibb.co/qYJ7zXt/20240306002430.gif" class="bbCodeImage LbImage" alt="[​IMG]" data-url="https://i.ibb.co/qYJ7zXt/20240306002430.gif" style=""><br>
​</div>
<div class="ToggleTriggerAnchor bbCodeSpoilerContainer">
<button type="button" class="button bbCodeSpoilerButton ToggleTrigger Tooltip JsOnly" data-target="> .SpoilerTarget"><span>Spoiler: <span class="SpoilerTitle">MASTER</span></span></button>
<div class="SpoilerTarget bbCodeSpoilerText">
<div class="bbCodeBlock bbCodeCode">
<div class="type">Code:</div>
<pre>Format                                   : MPEG-4
Format profile                           : Base Media / Version 2
Codec ID                                 : mp42 (mp42/mp41)
File size                                : 1.95 GiB
Duration                                 : 2 min 50 s
Overall bit rate mode                    : Variable
Overall bit rate                         : 98.2 Mb/s
Encoded date                             : UTC 2023-01-23 15:23:21
Tagged date                              : UTC 2023-01-23 15:26:51
TIM                                      : 00:00:00:00
TSC                                      : 25
TSZ                                      : 1

Video
ID                                       : 1
Format                                   : AVC
Format/Info                              : Advanced Video Codec
Format profile                           : High@L5.1
Format settings                          : CABAC / 2 Ref Frames
Format settings, CABAC                   : Yes
Format settings, Reference frames        : 2 frames
Codec ID                                 : avc1
Codec ID/Info                            : Advanced Video Coding
Duration                                 : 2 min 50 s
Bit rate mode                            : Variable
Bit rate                                 : 97.9 Mb/s
Maximum bit rate                         : 768 kb/s
Width                                    : 3 840 pixels
Height                                   : 2 160 pixels
Display aspect ratio                     : 16:9
Frame rate mode                          : Constant
Frame rate                               : 25.000 FPS
Color space                              : YUV
Chroma subsampling                       : 4:2:0
Bit depth                                : 8 bits
Scan type                                : Progressive
Bits/(Pixel*Frame)                       : 0.472
Stream size                              : 1.94 GiB (100%)
Language                                 : English
Encoded date                             : UTC 2023-01-23 15:23:21
Tagged date                              : UTC 2023-01-23 15:23:21
Color range                              : Limited
Color primaries                          : BT.709
Transfer characteristics                 : BT.709
Matrix coefficients                      : BT.709
Codec configuration box                  : avcC

Audio
ID                                       : 2
Format                                   : AAC LC
Format/Info                              : Advanced Audio Codec Low Complexity
Codec ID                                 : mp4a-40-2
Duration                                 : 2 min 50 s
Source duration                          : 2 min 50 s
Bit rate mode                            : Variable
Bit rate                                 : 317 kb/s
Maximum bit rate                         : 435 kb/s
Channel(s)                               : 2 channels
Channel layout                           : L R
Sampling rate                            : 48.0 kHz
Frame rate                               : 46.875 FPS (1024 SPF)
Compression mode                         : Lossy
Stream size                              : 6.45 MiB (0%)
Source stream size                       : 6.45 MiB (0%)
Language                                 : English
Encoded date                             : UTC 2023-01-23 15:23:24
Tagged date                              : UTC 2023-01-23 15:23:24</pre>
</div><div style="text-align: center">​</div></div>
</div><div style="text-align: center"><br>
<div class="bbCodeBlock bbCodeVfcHH HiddenContent">
<div class="attribution type">Hidden Content:</div>
<blockquote>You must reply before you can see the hidden data contained here.</blockquote>
</div></div>
<div class="messageTextEndMarker">&nbsp;</div>
</blockquote>
</article>]]></description>
                <author><![CDATA[fstambuk]]></author>
                </item>

                
                <item>
                <title><![CDATA[【SD】Kumbia King - Chiquilla (Promo Only)]]></title>
                <link><![CDATA[https://sharemania.us/threads/kumbia-king-chiquilla-promo-only.239319/]]></link>
                <description><![CDATA[<article>
<blockquote class="messageText SelectQuoteContainer ugc baseHtml">
<a href="https://ibb.co/2q0pmWC" target="_blank" class="externalLink" rel="nofollow"><img src="https://i.ibb.co/xhKrPXB/chiquilla-mpg-thumbs.jpg" class="bbCodeImage LbImage" alt="[​IMG]" data-url="https://i.ibb.co/xhKrPXB/chiquilla-mpg-thumbs.jpg"></a><br>
<br>
<b>
<div class="bbCodeBlock bbCodeVfcHH HiddenContent">
<div class="attribution type">Hidden Content:</div>
<blockquote>You must reply before you can see the hidden data contained here.</blockquote>
</div></b>
<div class="messageTextEndMarker">&nbsp;</div>
</blockquote>
</article>]]></description>
                <author><![CDATA[JonathanM]]></author>
                </item>

                </channel></rss>